<mxfile modified="2024-06-27T17:15:08.202Z" host="app.diagrams.net" agent="Mozilla/5.0 (Macintosh; Intel Mac OS X 10_15_7) AppleWebKit/537.36 (KHTML, like Gecko) Chrome/124.0.0.0 Safari/537.36" etag="PRAro8dHw4JjpspMIskQ" version="24.6.4" type="device">
  <diagram id="Ht1M8jgEwFfnCIfOTk4-" name="Page-1">
    <mxGraphModel dx="1230" dy="1610" grid="1" gridSize="10" guides="1" tooltips="1" connect="1" arrows="1" fold="1" page="1" pageScale="1" pageWidth="1169" pageHeight="827" math="0" shadow="0">
      <root>
        <mxCell id="0" />
        <mxCell id="1" parent="0" />
        <mxCell id="IgK3jqseScGIvqw7NK0O-9" value="" style="edgeStyle=orthogonalEdgeStyle;rounded=0;orthogonalLoop=1;jettySize=auto;html=1;" edge="1" parent="1" source="IgK3jqseScGIvqw7NK0O-1" target="IgK3jqseScGIvqw7NK0O-3">
          <mxGeometry relative="1" as="geometry" />
        </mxCell>
        <mxCell id="IgK3jqseScGIvqw7NK0O-10" style="edgeStyle=orthogonalEdgeStyle;rounded=0;orthogonalLoop=1;jettySize=auto;html=1;exitX=0.5;exitY=0.905;exitDx=0;exitDy=0;exitPerimeter=0;" edge="1" parent="1" source="IgK3jqseScGIvqw7NK0O-1" target="IgK3jqseScGIvqw7NK0O-3">
          <mxGeometry relative="1" as="geometry" />
        </mxCell>
        <mxCell id="IgK3jqseScGIvqw7NK0O-1" value="" style="outlineConnect=0;dashed=0;verticalLabelPosition=bottom;verticalAlign=top;align=center;html=1;shape=mxgraph.aws3.ecs;fillColor=#F58534;gradientColor=none;" vertex="1" parent="1">
          <mxGeometry x="399.5" y="-750" width="151" height="120" as="geometry" />
        </mxCell>
        <mxCell id="IgK3jqseScGIvqw7NK0O-3" value="" style="sketch=0;points=[[0,0,0],[0.25,0,0],[0.5,0,0],[0.75,0,0],[1,0,0],[0,1,0],[0.25,1,0],[0.5,1,0],[0.75,1,0],[1,1,0],[0,0.25,0],[0,0.5,0],[0,0.75,0],[1,0.25,0],[1,0.5,0],[1,0.75,0]];outlineConnect=0;fontColor=#232F3E;fillColor=#ED7100;strokeColor=#ffffff;dashed=0;verticalLabelPosition=bottom;verticalAlign=top;align=center;html=1;fontSize=12;fontStyle=0;aspect=fixed;shape=mxgraph.aws4.resourceIcon;resIcon=mxgraph.aws4.ecs;" vertex="1" parent="1">
          <mxGeometry x="410" y="-594" width="130" height="130" as="geometry" />
        </mxCell>
        <mxCell id="IgK3jqseScGIvqw7NK0O-5" value="" style="edgeStyle=orthogonalEdgeStyle;rounded=0;orthogonalLoop=1;jettySize=auto;html=1;" edge="1" parent="1" source="IgK3jqseScGIvqw7NK0O-4" target="IgK3jqseScGIvqw7NK0O-3">
          <mxGeometry relative="1" as="geometry" />
        </mxCell>
        <mxCell id="IgK3jqseScGIvqw7NK0O-19" value="" style="edgeStyle=orthogonalEdgeStyle;rounded=0;orthogonalLoop=1;jettySize=auto;html=1;" edge="1" parent="1" source="IgK3jqseScGIvqw7NK0O-4" target="IgK3jqseScGIvqw7NK0O-18">
          <mxGeometry relative="1" as="geometry" />
        </mxCell>
        <mxCell id="IgK3jqseScGIvqw7NK0O-4" value="" style="sketch=0;outlineConnect=0;fontColor=#232F3E;gradientColor=none;fillColor=#ED7100;strokeColor=none;dashed=0;verticalLabelPosition=bottom;verticalAlign=top;align=center;html=1;fontSize=12;fontStyle=0;aspect=fixed;pointerEvents=1;shape=mxgraph.aws4.container_2;" vertex="1" parent="1">
          <mxGeometry x="379" y="-390" width="192" height="124" as="geometry" />
        </mxCell>
        <mxCell id="IgK3jqseScGIvqw7NK0O-11" value="Task/Container" style="text;html=1;align=center;verticalAlign=middle;whiteSpace=wrap;rounded=0;" vertex="1" parent="1">
          <mxGeometry x="445" y="-250" width="60" height="30" as="geometry" />
        </mxCell>
        <mxCell id="IgK3jqseScGIvqw7NK0O-12" value="ECS service" style="text;html=1;align=center;verticalAlign=middle;whiteSpace=wrap;rounded=0;" vertex="1" parent="1">
          <mxGeometry x="339.5" y="-520" width="60" height="30" as="geometry" />
        </mxCell>
        <mxCell id="IgK3jqseScGIvqw7NK0O-13" value="Ecs cluster" style="text;html=1;align=center;verticalAlign=middle;whiteSpace=wrap;rounded=0;" vertex="1" parent="1">
          <mxGeometry x="310" y="-690" width="60" height="30" as="geometry" />
        </mxCell>
        <mxCell id="IgK3jqseScGIvqw7NK0O-24" value="" style="edgeStyle=orthogonalEdgeStyle;rounded=0;orthogonalLoop=1;jettySize=auto;html=1;" edge="1" parent="1" source="IgK3jqseScGIvqw7NK0O-16" target="IgK3jqseScGIvqw7NK0O-23">
          <mxGeometry relative="1" as="geometry" />
        </mxCell>
        <mxCell id="IgK3jqseScGIvqw7NK0O-16" value="" style="outlineConnect=0;dashed=0;verticalLabelPosition=bottom;verticalAlign=top;align=center;html=1;shape=mxgraph.aws3.application_load_balancer;fillColor=#F58534;gradientColor=none;" vertex="1" parent="1">
          <mxGeometry x="765.5" y="-620" width="69" height="72" as="geometry" />
        </mxCell>
        <mxCell id="IgK3jqseScGIvqw7NK0O-21" value="" style="edgeStyle=orthogonalEdgeStyle;rounded=0;orthogonalLoop=1;jettySize=auto;html=1;" edge="1" parent="1" source="IgK3jqseScGIvqw7NK0O-18" target="IgK3jqseScGIvqw7NK0O-20">
          <mxGeometry relative="1" as="geometry" />
        </mxCell>
        <mxCell id="IgK3jqseScGIvqw7NK0O-18" value="Listener" style="ellipse;whiteSpace=wrap;html=1;verticalAlign=top;fillColor=#ED7100;strokeColor=none;fontColor=#232F3E;sketch=0;gradientColor=none;dashed=0;fontStyle=0;pointerEvents=1;" vertex="1" parent="1">
          <mxGeometry x="760" y="-368" width="80" height="80" as="geometry" />
        </mxCell>
        <mxCell id="IgK3jqseScGIvqw7NK0O-22" value="" style="edgeStyle=orthogonalEdgeStyle;rounded=0;orthogonalLoop=1;jettySize=auto;html=1;" edge="1" parent="1" source="IgK3jqseScGIvqw7NK0O-20" target="IgK3jqseScGIvqw7NK0O-16">
          <mxGeometry relative="1" as="geometry" />
        </mxCell>
        <mxCell id="IgK3jqseScGIvqw7NK0O-20" value="Target group and targets" style="rhombus;whiteSpace=wrap;html=1;verticalAlign=top;fillColor=#ED7100;strokeColor=none;fontColor=#232F3E;sketch=0;gradientColor=none;dashed=0;fontStyle=0;pointerEvents=1;" vertex="1" parent="1">
          <mxGeometry x="760" y="-490" width="80" height="80" as="geometry" />
        </mxCell>
        <mxCell id="IgK3jqseScGIvqw7NK0O-26" value="" style="edgeStyle=orthogonalEdgeStyle;rounded=0;orthogonalLoop=1;jettySize=auto;html=1;" edge="1" parent="1" source="IgK3jqseScGIvqw7NK0O-23" target="IgK3jqseScGIvqw7NK0O-25">
          <mxGeometry relative="1" as="geometry" />
        </mxCell>
        <mxCell id="IgK3jqseScGIvqw7NK0O-23" value="Application Load balancer" style="text;html=1;align=center;verticalAlign=middle;whiteSpace=wrap;rounded=0;" vertex="1" parent="1">
          <mxGeometry x="770" y="-670" width="60" height="30" as="geometry" />
        </mxCell>
        <mxCell id="IgK3jqseScGIvqw7NK0O-25" value="DNS" style="text;html=1;align=center;verticalAlign=middle;whiteSpace=wrap;rounded=0;" vertex="1" parent="1">
          <mxGeometry x="770" y="-780" width="60" height="30" as="geometry" />
        </mxCell>
        <mxCell id="IgK3jqseScGIvqw7NK0O-27" value="l" style="sketch=0;outlineConnect=0;gradientColor=none;html=1;whiteSpace=wrap;fontSize=12;fontStyle=0;shape=mxgraph.aws4.group;grIcon=mxgraph.aws4.group_vpc;strokeColor=#879196;fillColor=none;verticalAlign=top;align=left;spacingLeft=30;fontColor=#879196;dashed=0;" vertex="1" parent="1">
          <mxGeometry x="140" y="-810" width="810" height="630" as="geometry" />
        </mxCell>
      </root>
    </mxGraphModel>
  </diagram>
</mxfile>
